M48
; DRILL file KiCad 10.0.4 date 2026-07-17T22:46:17
; FORMAT={-:-/ absolute / metric / decimal}
; #@! TF.CreationDate,2026-07-17T22:46:17+02:00
; #@! TF.GenerationSoftware,Kicad,Pcbnew,10.0.4
; #@! TF.FileFunction,Plated,1,2,PTH
FMAT,2
METRIC
; #@! TA.AperFunction,Plated,PTH,ComponentDrill
T1C1.000
; #@! TA.AperFunction,Plated,PTH,ComponentDrill
T2C1.500
%
G90
G05
T1
X118.375Y-100.88
X118.375Y-103.42
X118.375Y-105.96
X118.375Y-108.5
X118.375Y-111.04
X118.375Y-113.58
X118.375Y-116.12
X133.625Y-100.88
X133.625Y-103.42
X133.625Y-105.96
X133.625Y-108.5
X133.625Y-111.04
X133.625Y-113.58
X133.625Y-116.12
X146.615Y-145.305
X146.615Y-147.845
X146.615Y-150.385
X146.615Y-152.925
T2
X93.11Y-105.46
X93.11Y-124.96
X93.11Y-144.46
X99.46Y-102.92
X99.46Y-122.42
X99.46Y-141.92
M30
